<?xml version="1.0" encoding="UTF-8"?>
<svg id="Capa_1" xmlns="http://www.w3.org/2000/svg" version="1.1" xmlns:xlink="http://www.w3.org/1999/xlink" viewBox="0 0 162 270">
  <!-- Generator: Adobe Illustrator 30.1.0, SVG Export Plug-In . SVG Version: 2.1.1 Build 136)  -->
  <defs>
    <style>
      .st0 {
        font-family: Gilroy-Bold, Gilroy-Bold;
        font-size: 6.42px;
        font-weight: 700;
      }

      .st0, .st1, .st2 {
        fill: #1d1d1b;
      }

      .st2 {
        font-size: 5.5px;
      }

      .st2, .st3 {
        font-family: Gilroy-Medium, Gilroy-Medium;
        font-weight: 500;
      }

      .st4 {
        letter-spacing: .1em;
      }

      .st5, .st3 {
        fill: #fff;
      }

      .st6 {
        letter-spacing: 1.17em;
      }

      .st7 {
        letter-spacing: .56em;
      }

      .st8 {
        fill: #e72f75;
      }

      .st9 {
        letter-spacing: .63em;
      }

      .st10 {
        fill: none;
      }

      .st3 {
        font-size: 6px;
      }

      .st11 {
        fill: #4bbfd9;
      }

      .st12 {
        letter-spacing: .1em;
      }

      .st13 {
        fill: #a0c969;
      }

      .st14 {
        letter-spacing: .23em;
      }

      .st15 {
        letter-spacing: 1.17em;
      }

      .st16 {
        fill: #014c91;
      }

      .st17 {
        letter-spacing: .63em;
      }

      .st18 {
        letter-spacing: .23em;
      }

      .st19 {
        fill: #f8b063;
      }

      .st20 {
        clip-path: url(#clippath);
      }

      .st21 {
        fill: #f5afc3;
      }
    </style>
    <clipPath id="clippath">
      <rect class="st10" width="162" height="270"/>
    </clipPath>
  </defs>
  <g class="st20">
    <rect class="st16" x="-1.61" y="-2.57" width="165.6" height="263.57"/>
    <path class="st5" d="M140.73,50.71H21.26c-2.99,0-5.41,2.43-5.41,5.42v119.46c0,3,2.42,5.42,5.41,5.42h119.47c2.99,0,5.42-2.42,5.42-5.42V56.13c0-2.99-2.43-5.42-5.42-5.42Z"/>
    <path class="st5" d="M16.6,246.32h129.18c10.05,0,18.21,8.16,18.21,18.21H-1.61c0-10.05,8.16-18.21,18.21-18.21Z"/>
    <text class="st3" transform="translate(41.05 227.28)"><tspan x="0" y="0">Fecha de emisión 18-12-2025</tspan></text>
    <g>
      <g>
        <g>
          <path class="st16" d="M50.44,259.99h-2.41c-.77,0-1.4-.63-1.4-1.4v-2.41c0-.77.63-1.4,1.4-1.4h2.41c.77,0,1.4.63,1.4,1.4v2.41c0,.77-.63,1.4-1.4,1.4ZM48.02,255.02c-.64,0-1.16.52-1.16,1.16v2.41c0,.64.52,1.16,1.16,1.16h2.41c.64,0,1.16-.52,1.16-1.16v-2.41c0-.64-.52-1.16-1.16-1.16h-2.41Z"/>
          <path class="st16" d="M50.56,257.02c0-.33-.27-.6-.6-.6h-1.53c-.33,0-.6.27-.6.6v.71c0,.33.27.6.6.6h1.53c.33,0,.6-.27.6-.6v-.71ZM49.66,257.43l-.68.34s-.12,0-.12-.04v-.69s.09-.05.12-.03l.65.36s.06.06.03.07Z"/>
        </g>
        <g>
          <path class="st16" d="M37,259.99h-2.25c-.81,0-1.48-.66-1.48-1.48v-2.25c0-.81.66-1.48,1.48-1.48h2.25c.81,0,1.48.66,1.48,1.48v2.25c0,.81-.66,1.48-1.48,1.48ZM34.75,255.02c-.68,0-1.24.55-1.24,1.24v2.25c0,.68.55,1.24,1.24,1.24h2.25c.68,0,1.24-.55,1.24-1.24v-2.25c0-.68-.55-1.24-1.24-1.24h-2.25Z"/>
          <g>
            <path class="st16" d="M36.65,256.45c-.09,0-.17.08-.17.17s.08.17.17.17.17-.08.17-.17-.08-.17-.17-.17Z"/>
            <path class="st16" d="M35.89,256.66c-.4,0-.72.32-.72.72s.32.72.72.72.72-.32.72-.72-.32-.72-.72-.72ZM35.89,257.84c-.25,0-.46-.21-.46-.46s.21-.46.46-.46.46.21.46.46-.21.46-.46.46Z"/>
            <path class="st16" d="M36.46,258.84h-1.16c-.48,0-.87-.39-.87-.87v-1.16c0-.48.39-.87.87-.87h1.16c.48,0,.87.39.87.87v1.16c0,.48-.39.87-.87.87ZM35.29,256.2c-.33,0-.6.27-.6.6v1.16c0,.33.27.6.6.6h1.16c.33,0,.6-.27.6-.6v-1.16c0-.33-.27-.6-.6-.6h-1.16Z"/>
          </g>
        </g>
        <g>
          <path class="st16" d="M30.41,259.99h-2.54c-.73,0-1.33-.6-1.33-1.33v-2.54c0-.73.6-1.33,1.33-1.33h2.54c.73,0,1.33.6,1.33,1.33v2.54c0,.73-.6,1.33-1.33,1.33ZM27.87,255.02c-.6,0-1.09.49-1.09,1.09v2.54c0,.6.49,1.09,1.09,1.09h2.54c.6,0,1.09-.49,1.09-1.09v-2.54c0-.6-.49-1.09-1.09-1.09h-2.54Z"/>
          <g>
            <path class="st16" d="M28.02,256.99h.48v1.55h-.48v-1.55ZM28.26,256.23c.15,0,.28.12.28.28s-.12.28-.28.28-.28-.13-.28-.28.12-.28.28-.28"/>
            <path class="st16" d="M28.8,256.99h.46v.21h0c.06-.12.22-.25.45-.25.49,0,.58.32.58.74v.85h-.48v-.75c0-.18,0-.41-.25-.41s-.29.2-.29.4v.76h-.48v-1.55Z"/>
          </g>
        </g>
        <g>
          <path class="st16" d="M43.69,259.99h-2.15c-.84,0-1.53-.69-1.53-1.53v-2.15c0-.84.69-1.53,1.53-1.53h2.15c.84,0,1.53.69,1.53,1.53v2.15c0,.84-.69,1.53-1.53,1.53ZM41.54,255.02c-.71,0-1.29.58-1.29,1.29v2.15c0,.71.58,1.29,1.29,1.29h2.15c.71,0,1.29-.58,1.29-1.29v-2.15c0-.71-.58-1.29-1.29-1.29h-2.15Z"/>
          <path class="st16" d="M41.78,256.81l-.45-.59h.81s.56.74.56.74l.65-.74h.39s0,0,0,0l-.86.98,1.01,1.34h0s-.79,0-.79,0l-.62-.81h0s-.71.81-.71.81h-.39s0,0,0,0c0,0,0,0,0,0l.92-1.05-.52-.68ZM42.74,257.39l-.72-.95h-.23s1.42,1.86,1.42,1.86h.22s-.69-.92-.69-.92Z"/>
        </g>
        <g>
          <path class="st16" d="M23.66,259.98h-2.54c-.73,0-1.33-.6-1.33-1.33v-2.54c0-.73.6-1.33,1.33-1.33h2.54c.73,0,1.33.6,1.33,1.33v2.54c0,.73-.6,1.33-1.33,1.33ZM21.11,255.01c-.6,0-1.09.49-1.09,1.09v2.54c0,.6.49,1.09,1.09,1.09h2.54c.6,0,1.09-.49,1.09-1.09v-2.54c0-.6-.49-1.09-1.09-1.09h-2.54Z"/>
          <path class="st16" d="M23.31,258.18l.11-.72h-.69v-.47c0-.2.1-.39.4-.39h.31v-.61s-.28-.05-.56-.05c-.57,0-.94.34-.94.97v.55h-.63v.72h.63v1.68h.78v-1.68h.58Z"/>
        </g>
      </g>
      <g>
        <path class="st16" d="M106.96,256.31h.27v2.56c0,.39-.13.7-.38.92s-.57.34-.96.34c-.31,0-.57-.06-.79-.17-.22-.11-.38-.27-.48-.47l.24-.13c.17.35.52.52,1.03.52.33,0,.59-.09.78-.27.19-.18.28-.43.28-.73v-.49c-.11.21-.27.38-.47.5-.2.12-.43.18-.69.18-.39,0-.72-.14-.99-.41s-.41-.6-.41-1,.14-.73.41-1,.6-.41.99-.41c.25,0,.48.06.69.18.2.12.36.29.47.5v-.62ZM105.01,258.46c.22.22.49.33.81.33s.59-.11.81-.33c.22-.22.33-.49.33-.81s-.11-.59-.33-.81c-.22-.22-.49-.33-.81-.33s-.59.11-.81.33c-.22.22-.33.49-.33.81s.11.59.33.81Z"/>
        <path class="st16" d="M108.33,256.84c.16-.38.46-.56.9-.56v.26c-.25,0-.47.08-.64.24-.17.16-.26.41-.26.73v1.49h-.27v-2.69h.27v.53Z"/>
        <path class="st16" d="M111.7,256.31h.27v2.69h-.27v-.51c-.19.38-.51.57-.96.57-.32,0-.57-.1-.76-.29-.19-.2-.28-.46-.28-.78v-1.67h.27v1.67c0,.25.07.45.21.6s.33.22.58.22c.28,0,.5-.09.68-.27s.26-.45.26-.79v-1.42Z"/>
        <path class="st16" d="M114.22,256.25c.39,0,.72.14.99.41.27.27.41.6.41,1s-.14.73-.41,1c-.27.27-.6.41-.99.41-.25,0-.48-.06-.68-.18-.2-.12-.36-.29-.47-.5v1.7h-.27v-3.76h.27v.62c.11-.21.27-.38.47-.5.2-.12.43-.18.68-.18ZM113.39,258.46c.22.22.49.33.81.33s.59-.11.81-.33c.22-.22.33-.49.33-.81s-.11-.59-.33-.81c-.22-.22-.49-.33-.81-.33s-.59.11-.81.33c-.22.22-.33.49-.33.81s.11.59.33.81Z"/>
        <path class="st16" d="M117.49,259.05c-.39,0-.73-.14-1-.41-.27-.27-.41-.6-.41-1s.14-.73.41-1c.27-.27.61-.41,1-.41s.72.14,1,.41c.27.27.41.6.41,1s-.14.73-.41,1c-.27.27-.61.41-1,.41ZM116.68,258.46c.22.22.49.33.81.33s.59-.11.81-.33c.22-.22.33-.49.33-.81s-.11-.59-.33-.81c-.22-.22-.49-.33-.81-.33s-.59.11-.81.33c-.22.22-.33.49-.33.81s.11.59.33.81Z"/>
        <path class="st16" d="M119.81,256.84c.16-.38.46-.56.9-.56v.26c-.25,0-.47.08-.64.24-.17.16-.26.41-.26.73v1.49h-.27v-2.69h.27v.53Z"/>
        <path class="st16" d="M122.29,256.25c.39,0,.71.14.96.42.25.28.37.61.37.99,0,.01,0,.04,0,.06s0,.05,0,.06h-2.43c.03.3.15.54.36.73.21.18.47.28.78.28.21,0,.4-.04.56-.13.16-.09.28-.21.37-.35l.24.14c-.11.19-.27.33-.47.44-.2.11-.44.16-.7.16-.41,0-.75-.13-1.02-.39s-.4-.6-.4-1.01.13-.73.39-1,.59-.4,1-.4ZM122.29,256.51c-.3,0-.56.09-.76.28-.2.19-.32.43-.35.74h2.16c-.03-.32-.14-.57-.34-.75-.2-.18-.43-.27-.71-.27Z"/>
        <path class="st16" d="M126.61,256.31h.27v2.69h-.27v-.61c-.11.21-.27.37-.47.49s-.43.18-.68.18c-.38,0-.71-.14-.98-.41-.27-.27-.41-.6-.41-1s.14-.73.41-1c.27-.27.6-.41.98-.41.25,0,.48.06.68.18s.36.28.47.49v-.61ZM124.67,258.46c.22.22.49.33.81.33s.59-.11.81-.33c.22-.22.33-.49.33-.81s-.11-.59-.33-.81c-.22-.22-.49-.33-.81-.33s-.59.11-.81.33c-.22.22-.33.49-.33.81s.11.59.33.81Z"/>
        <path class="st16" d="M130.08,255.24h.27v3.76h-.27v-.62c-.11.21-.27.38-.47.5-.2.12-.43.18-.68.18-.39,0-.72-.14-.99-.41-.27-.27-.41-.6-.41-1s.14-.73.41-1c.27-.27.6-.41.99-.41.25,0,.48.06.68.18.2.12.36.29.47.5v-1.7ZM128.13,258.46c.22.22.49.33.81.33s.59-.11.81-.33c.22-.22.33-.49.33-.81s-.11-.59-.33-.81c-.22-.22-.49-.33-.81-.33s-.59.11-.81.33c-.22.22-.33.49-.33.81s.11.59.33.81Z"/>
        <path class="st16" d="M131.51,258.98s-.1.07-.17.07-.13-.02-.17-.07c-.05-.05-.07-.1-.07-.17s.02-.13.07-.17c.05-.05.1-.07.17-.07s.13.02.17.07c.05.05.07.1.07.17s-.02.13-.07.17Z"/>
        <path class="st16" d="M133.34,259.05c-.4,0-.74-.13-1.01-.4-.27-.27-.4-.6-.4-1s.13-.73.4-1c.27-.27.6-.4,1.01-.4.26,0,.5.06.71.19.21.12.37.29.46.5l-.22.13c-.08-.17-.2-.31-.37-.41-.17-.1-.36-.15-.58-.15-.32,0-.59.11-.81.33-.22.22-.33.49-.33.81s.11.59.33.81c.22.22.49.33.81.33.21,0,.41-.05.58-.15.17-.1.3-.24.39-.41l.23.13c-.11.21-.27.37-.48.5-.21.12-.45.19-.71.19Z"/>
        <path class="st16" d="M136.32,259.05c-.39,0-.73-.14-1-.41-.27-.27-.41-.6-.41-1s.14-.73.41-1c.27-.27.61-.41,1-.41s.72.14,1,.41c.27.27.41.6.41,1s-.14.73-.41,1c-.27.27-.61.41-1,.41ZM135.51,258.46c.22.22.49.33.81.33s.59-.11.81-.33c.22-.22.33-.49.33-.81s-.11-.59-.33-.81c-.22-.22-.49-.33-.81-.33s-.59.11-.81.33c-.22.22-.33.49-.33.81s.11.59.33.81Z"/>
        <path class="st16" d="M141.24,256.25c.29,0,.53.09.71.27.18.18.27.44.27.77v1.7h-.27v-1.7c0-.25-.07-.44-.2-.58-.13-.14-.3-.2-.52-.2-.24,0-.43.08-.58.25-.15.17-.22.41-.22.74v1.5h-.27v-1.7c0-.25-.06-.44-.19-.58-.12-.14-.29-.2-.5-.2-.24,0-.43.08-.59.25-.16.17-.24.41-.24.74v1.5h-.27v-2.69h.27v.46c.19-.35.47-.52.86-.52.2,0,.37.05.52.14.15.1.25.23.32.41.09-.18.22-.32.38-.41s.33-.14.52-.14Z"/>
      </g>
      <g>
        <path class="st16" d="M58.7,259.32c-.3.15-.6.21-.95.21-.88,0-1.63-.64-1.63-1.68,0-1.1.77-2.06,1.96-2.06.94,0,1.56.66,1.56,1.55,0,.81-.45,1.28-.95,1.28-.21,0-.41-.14-.4-.47h-.02c-.19.32-.44.47-.76.47s-.58-.25-.58-.67c0-.67.53-1.27,1.27-1.27.23,0,.44.05.58.11l-.18.97c-.08.41-.02.6.16.6.28,0,.58-.36.58-.98,0-.78-.47-1.34-1.3-1.34s-1.61.69-1.61,1.78c0,.89.59,1.45,1.38,1.45.31,0,.59-.07.81-.19l.08.23ZM58.41,257c-.06-.02-.15-.04-.27-.04-.47,0-.86.45-.86.97,0,.24.12.41.36.41.31,0,.6-.4.66-.73l.11-.6Z"/>
        <path class="st16" d="M62.64,256.29h.27v2.56c0,.39-.13.7-.38.92-.25.23-.57.34-.96.34-.31,0-.57-.06-.79-.17-.22-.11-.38-.27-.48-.47l.24-.13c.17.35.52.52,1.03.52.33,0,.59-.09.78-.27.19-.18.28-.43.28-.73v-.49c-.11.21-.27.38-.47.5-.2.12-.43.18-.69.18-.39,0-.72-.14-.99-.41s-.41-.6-.41-1,.14-.73.41-1,.6-.41.99-.41c.25,0,.48.06.69.18.2.12.36.29.47.5v-.62ZM60.7,258.44c.22.22.49.33.81.33s.59-.11.81-.33c.22-.22.33-.49.33-.81s-.11-.59-.33-.81c-.22-.22-.49-.33-.81-.33s-.59.11-.81.33c-.22.22-.33.49-.33.81s.11.59.33.81Z"/>
        <path class="st16" d="M64.01,256.81c.16-.38.46-.56.9-.56v.26c-.25,0-.47.08-.64.24-.17.16-.26.41-.26.73v1.49h-.27v-2.69h.27v.53Z"/>
        <path class="st16" d="M67.38,256.29h.27v2.69h-.27v-.51c-.19.38-.51.57-.96.57-.32,0-.57-.1-.76-.29s-.28-.46-.28-.78v-1.67h.27v1.67c0,.25.07.45.21.6.14.15.33.22.58.22.28,0,.5-.09.68-.27.18-.18.26-.45.26-.79v-1.42Z"/>
        <path class="st16" d="M69.9,256.23c.39,0,.72.14.99.41s.41.6.41,1-.14.73-.41,1-.6.41-.99.41c-.25,0-.48-.06-.69-.18-.2-.12-.36-.29-.47-.5v1.7h-.27v-3.76h.27v.62c.11-.21.27-.38.47-.5.2-.12.43-.18.69-.18ZM69.08,258.44c.22.22.49.33.81.33s.59-.11.81-.33c.22-.22.33-.49.33-.81s-.11-.59-.33-.81c-.22-.22-.49-.33-.81-.33s-.59.11-.81.33c-.22.22-.33.49-.33.81s.11.59.33.81Z"/>
        <path class="st16" d="M73.17,259.03c-.39,0-.73-.14-1-.41-.27-.27-.41-.6-.41-1s.14-.73.41-1c.27-.27.61-.41,1-.41s.72.14,1,.41c.27.27.41.6.41,1s-.14.73-.41,1c-.27.27-.61.41-1,.41ZM72.36,258.44c.22.22.49.33.81.33s.59-.11.81-.33c.22-.22.33-.49.33-.81s-.11-.59-.33-.81c-.22-.22-.49-.33-.81-.33s-.59.11-.81.33c-.22.22-.33.49-.33.81s.11.59.33.81Z"/>
        <path class="st16" d="M75.49,256.81c.16-.38.46-.56.9-.56v.26c-.25,0-.47.08-.64.24-.17.16-.26.41-.26.73v1.49h-.27v-2.69h.27v.53Z"/>
        <path class="st16" d="M77.98,256.23c.39,0,.71.14.96.42.25.28.37.61.37.99,0,.01,0,.04,0,.06,0,.03,0,.05,0,.06h-2.43c.03.3.15.54.36.73.21.18.47.28.78.28.21,0,.4-.04.56-.13s.28-.21.37-.35l.24.14c-.11.19-.27.33-.47.44-.2.11-.44.16-.7.16-.41,0-.75-.13-1.02-.39s-.4-.6-.4-1.01.13-.73.39-1c.26-.27.59-.4,1-.4ZM77.98,256.49c-.3,0-.56.09-.76.28-.2.19-.32.43-.35.74h2.16c-.03-.32-.14-.57-.34-.75-.2-.18-.43-.27-.71-.27Z"/>
        <path class="st16" d="M82.3,256.29h.27v2.69h-.27v-.61c-.11.21-.27.37-.47.49s-.43.18-.68.18c-.38,0-.71-.14-.98-.41-.27-.27-.41-.6-.41-1s.14-.73.41-1c.27-.27.6-.41.98-.41.25,0,.48.06.68.18s.36.28.47.49v-.61ZM80.35,258.44c.22.22.49.33.81.33s.59-.11.81-.33c.22-.22.33-.49.33-.81s-.11-.59-.33-.81c-.22-.22-.49-.33-.81-.33s-.59.11-.81.33c-.22.22-.33.49-.33.81s.11.59.33.81Z"/>
        <path class="st16" d="M85.76,255.21h.27v3.76h-.27v-.62c-.11.21-.27.38-.47.5-.2.12-.43.18-.68.18-.39,0-.72-.14-.99-.41-.27-.27-.41-.6-.41-1s.14-.73.41-1c.27-.27.6-.41.99-.41.25,0,.48.06.68.18.2.12.36.29.47.5v-1.7ZM83.82,258.44c.22.22.49.33.81.33s.59-.11.81-.33c.22-.22.33-.49.33-.81s-.11-.59-.33-.81c-.22-.22-.49-.33-.81-.33s-.59.11-.81.33c-.22.22-.33.49-.33.81s.11.59.33.81Z"/>
      </g>
      <path class="st16" d="M90.8,261v-7.24h.84v7.24h-.84Z"/>
      <g>
        <path class="st16" d="M99.76,257.38c0,.79-.64,1.44-1.44,1.44s-1.44-.64-1.44-1.44.64-1.44,1.44-1.44,1.44.64,1.44,1.44ZM98.65,256.58c-.04-.14-.12-.31-.23-.4-.06-.04-.13-.04-.18,0-.11.09-.19.26-.23.4.22.05.43.05.64,0ZM97.81,256.52c.03-.12.08-.21.13-.32-.15.05-.26.11-.38.2.08.05.16.09.25.12ZM99.09,256.4c-.12-.09-.24-.16-.38-.2.06.11.1.21.14.32.08-.03.17-.07.24-.12ZM97.69,257.28c0-.2.03-.38.07-.56-.13-.04-.24-.1-.35-.17-.19.21-.3.46-.32.73h.6ZM98.96,257.28h.6c-.02-.27-.13-.53-.32-.73-.11.07-.22.13-.35.17.04.19.06.38.07.56ZM98.76,257.28c0-.18-.02-.34-.06-.51-.25.05-.5.05-.75,0-.04.17-.05.34-.06.51h.87ZM97.76,258.04c-.04-.19-.06-.37-.07-.56h-.6c.02.28.14.53.32.74.11-.07.22-.13.35-.17ZM98.7,257.99c.04-.18.05-.34.06-.51h-.87c0,.17.02.34.06.51.25-.05.5-.05.75,0ZM99.24,258.21c.19-.21.3-.46.32-.73h-.6c0,.19-.03.38-.07.56.13.04.24.1.35.17ZM98.42,258.58c.11-.09.19-.26.23-.4-.21-.05-.43-.05-.64,0,.04.14.12.32.24.4.06.04.12.04.18,0ZM97.95,258.55c-.06-.11-.1-.2-.13-.32-.09.03-.17.07-.24.12.12.09.24.16.38.2ZM99.09,258.36c-.08-.05-.16-.08-.24-.12-.03.11-.08.21-.13.32.14-.04.26-.11.38-.2Z"/>
        <path class="st16" d="M99.53,260.1h-2.41c-.84,0-1.52-.68-1.52-1.52v-2.41c0-.84.68-1.52,1.52-1.52h2.41c.84,0,1.52.68,1.52,1.52v2.41c0,.84-.68,1.52-1.52,1.52ZM97.12,255.13c-.57,0-1.04.47-1.04,1.04v2.41c0,.57.47,1.04,1.04,1.04h2.41c.57,0,1.04-.47,1.04-1.04v-2.41c0-.57-.47-1.04-1.04-1.04h-2.41Z"/>
      </g>
    </g>
    <g>
      <g>
        <polygon class="st8" points="48.21 211.4 53.09 204.1 50.84 212.58 48.21 211.4"/>
        <polygon class="st13" points="42.5 205.03 50.95 207.42 42.19 207.9 42.5 205.03"/>
        <polygon class="st21" points="46.91 197.68 47.17 206.46 44.08 198.25 46.91 197.68"/>
        <polygon class="st19" points="55.3 199.42 47.04 202.4 53.88 196.91 55.3 199.42"/>
        <polygon class="st11" points="55.99 208.2 50.72 201.18 57.97 206.1 55.99 208.2"/>
        <polygon class="st5" points="57.86 203.95 52.35 201.43 58.37 202.03 57.86 203.95"/>
        <polygon class="st5" points="50.25 195.68 47.51 201.08 48.35 195.09 50.25 195.68"/>
        <polygon class="st5" points="42.16 200.31 45.76 205.18 40.78 201.74 42.16 200.31"/>
        <polygon class="st5" points="43.64 209.94 49.46 208.26 44.51 211.73 43.64 209.94"/>
        <polygon class="st5" points="52.91 212.42 53.22 206.37 54.88 212.18 52.91 212.42"/>
      </g>
      <g>
        <path class="st5" d="M67.35,207.63c-.13.07-.28.15-.44.24-.16.08-.35.16-.56.23-.21.07-.44.13-.7.18-.26.05-.55.07-.89.07-.58,0-1.08-.09-1.51-.27-.43-.18-.78-.42-1.07-.71-.28-.3-.49-.63-.63-1.01-.14-.38-.21-.77-.21-1.16,0-.48.09-.92.27-1.31.18-.39.42-.73.72-1.01.3-.28.66-.49,1.06-.65.4-.15.84-.23,1.29-.23.29,0,.55.02.78.06.24.04.45.1.65.17.2.07.38.14.53.22.16.08.31.16.44.23l.35-.36.05,1.89-.27.04c-.03-.09-.07-.19-.12-.3-.05-.11-.1-.22-.17-.33-.07-.11-.14-.23-.24-.35-.09-.12-.2-.24-.33-.35-.06-.05-.13-.11-.22-.17-.09-.06-.19-.12-.31-.18-.12-.06-.25-.11-.39-.15-.14-.04-.3-.06-.47-.06-.29,0-.57.07-.84.2-.27.13-.5.32-.71.57-.2.25-.36.54-.48.89-.12.35-.18.74-.18,1.18,0,.35.05.69.14,1.02.09.33.23.63.41.89.18.26.39.47.65.63.26.16.55.24.87.24.19,0,.35-.02.49-.07.14-.05.26-.1.36-.17.1-.06.17-.12.22-.17.05-.05.08-.08.09-.09.03-.04.05-.08.07-.12.02-.04.03-.09.04-.15,0-.06.01-.13.02-.21,0-.08,0-.19,0-.31,0-.19-.01-.34-.03-.45-.02-.11-.07-.19-.13-.24-.07-.05-.16-.09-.27-.11-.11-.02-.27-.04-.45-.06v-.33c.22.01.44.02.66.03.22,0,.44.01.66.01.23,0,.46,0,.69-.01.23,0,.46-.02.69-.03v.33c-.15.01-.27.03-.36.06-.08.03-.14.09-.18.19-.04.09-.06.23-.07.4,0,.17-.02.4-.02.68v.45Z"/>
        <path class="st5" d="M68.54,202.16c.26,0,.49,0,.69.01.21,0,.42,0,.64,0h.27c.13,0,.27,0,.41,0,.15,0,.29,0,.42,0h.28c.19,0,.42.01.67.04.25.03.49.1.71.21.26.14.44.32.55.55.11.23.16.47.16.71,0,.26-.05.49-.15.68-.1.19-.21.35-.34.47-.13.13-.27.23-.41.3-.14.08-.26.14-.35.18l1.21,1.51c.19.23.34.42.46.55.12.13.23.24.32.31.09.07.18.12.26.14.08.02.17.04.28.05v.33c-.15,0-.29,0-.41,0h-.39c-.15,0-.3,0-.44,0-.15,0-.3,0-.44,0-.17-.23-.32-.43-.45-.61-.13-.18-.28-.37-.42-.56-.15-.19-.32-.41-.51-.65-.19-.24-.43-.54-.71-.89h-.42v1.39c0,.18,0,.33.02.44,0,.12.02.21.06.28.03.07.08.12.15.16.07.04.16.07.27.09.11.02.25.03.41.04v.33c-.24,0-.48-.01-.71-.02-.23,0-.47,0-.71,0s-.47,0-.7,0c-.23,0-.46.01-.68.02v-.33c.16-.02.29-.05.38-.07.09-.03.16-.07.21-.12.05-.06.08-.13.09-.23.01-.1.02-.23.03-.39,0-.13,0-.26,0-.4v-2.55c0-.07,0-.17,0-.3,0-.13,0-.26-.01-.4,0-.14-.01-.26-.03-.38-.01-.12-.03-.2-.04-.24-.05-.11-.12-.19-.21-.21-.09-.03-.24-.06-.42-.09v-.31ZM70.43,205.15c.06,0,.12,0,.18,0,.06,0,.12,0,.18,0,.03,0,.09,0,.16,0,.07,0,.15-.01.24-.03.09-.02.19-.04.28-.08.1-.03.19-.09.27-.15.11-.09.21-.22.31-.4.1-.18.15-.42.15-.71,0-.14-.01-.27-.04-.41-.03-.13-.08-.26-.15-.37-.07-.14-.16-.24-.25-.31-.09-.07-.2-.12-.33-.16-.13-.03-.27-.05-.44-.06-.17,0-.36,0-.57,0v2.69Z"/>
        <path class="st5" d="M74.42,202.14c.25.01.47.02.69.03.21,0,.43,0,.65,0,.23,0,.46,0,.69,0,.23,0,.46-.01.69-.03v.33c-.2.02-.35.04-.46.06-.11.02-.19.08-.24.17-.05.09-.08.22-.09.4-.01.18-.02.43-.02.74v1.42c0,.18,0,.36,0,.53,0,.17.02.34.04.5.03.16.07.32.12.47.05.15.13.3.24.43.1.14.21.26.32.34.11.08.22.14.33.18.11.04.21.07.31.08.09.01.18.02.24.02.22,0,.41-.03.59-.1.18-.07.34-.16.48-.27.14-.11.26-.25.36-.4.1-.15.17-.32.22-.5.04-.14.07-.31.1-.5.03-.19.04-.4.06-.61.01-.21.02-.42.02-.63,0-.21,0-.4,0-.58v-.58c0-.12,0-.23,0-.33,0-.1,0-.18,0-.23-.01-.14-.04-.24-.07-.32-.04-.08-.09-.13-.16-.17-.07-.04-.16-.06-.26-.08-.1-.01-.22-.03-.36-.04v-.33c.36.02.72.03,1.08.03.34,0,.67,0,1.01-.03v.33c-.14,0-.26,0-.35.03-.09.02-.16.05-.21.11-.05.05-.09.13-.12.22-.03.09-.04.22-.05.36,0,.02,0,.08,0,.18,0,.1-.01.22-.02.36,0,.14-.01.29-.02.45,0,.16-.01.32-.02.46,0,.15-.01.28-.02.39,0,.11,0,.19,0,.23-.01.23-.03.46-.04.69-.02.23-.05.45-.1.66-.07.27-.17.5-.29.69-.13.19-.27.35-.42.48-.16.13-.32.23-.49.3-.17.07-.33.13-.49.16-.16.04-.3.06-.43.07-.13,0-.23.01-.3.01-.09,0-.19,0-.31-.01-.12,0-.25-.03-.39-.06-.14-.03-.29-.07-.44-.13-.15-.05-.3-.13-.44-.23-.22-.15-.4-.32-.52-.51-.12-.19-.21-.39-.27-.6-.06-.21-.09-.44-.1-.67-.01-.23-.02-.47-.02-.71v-1.37c0-.33,0-.57,0-.73s0-.28-.02-.36c-.03-.19-.09-.31-.2-.37-.1-.06-.27-.1-.5-.11v-.33Z"/>
        <path class="st5" d="M81.46,202.14c.09,0,.17.01.25.01.07,0,.15,0,.22,0h1.02c.16,0,.33,0,.51,0,.18,0,.35,0,.51,0h.35c.18,0,.35,0,.49.02.15.01.28.03.39.06.11.03.22.06.32.1.1.04.19.09.28.15.21.14.36.32.47.53.11.21.17.46.17.75,0,.18-.02.36-.07.52-.05.16-.12.31-.22.45-.13.17-.27.31-.44.4-.17.1-.36.17-.55.21-.2.05-.4.07-.61.09-.21.01-.41.02-.62.02h-.56v.85c0,.35,0,.63.01.83,0,.2.04.36.09.47.05.11.12.18.22.21.1.03.24.05.42.06v.33c-.44-.02-.89-.03-1.33-.03s-.88,0-1.31.03v-.33c.16-.01.29-.03.38-.06.1-.03.17-.07.22-.12.05-.06.08-.13.1-.23.02-.1.03-.23.03-.39,0-.13,0-.25,0-.37v-3.03c0-.13,0-.24,0-.34,0-.09,0-.17-.01-.24,0-.06-.01-.12-.02-.17-.02-.17-.08-.27-.18-.33-.1-.05-.27-.09-.52-.11v-.33ZM83.37,205.12c.18,0,.34,0,.47,0,.13,0,.25-.01.36-.03.1-.01.2-.04.28-.07.08-.03.16-.08.24-.15.17-.13.3-.3.38-.5.08-.2.12-.42.12-.66,0-.14-.01-.27-.04-.38-.03-.11-.06-.2-.1-.28-.04-.08-.08-.14-.12-.19-.04-.05-.08-.09-.12-.12-.09-.07-.18-.13-.27-.17-.09-.04-.2-.07-.32-.09-.12-.02-.25-.03-.39-.03-.15,0-.31,0-.5,0v2.65Z"/>
        <path class="st5" d="M90.15,202.01c.48,0,.92.08,1.32.24.4.16.75.37,1.04.65.29.28.51.61.67.99.16.39.24.81.24,1.26,0,.52-.09.99-.26,1.38-.17.4-.41.73-.7.99-.29.27-.63.47-1.01.6-.39.14-.79.21-1.21.21-.46,0-.89-.08-1.3-.23-.4-.15-.75-.37-1.04-.65-.29-.28-.53-.62-.7-1.01-.17-.39-.26-.83-.26-1.31,0-.41.07-.81.21-1.18.14-.38.35-.71.62-1,.27-.29.61-.52,1.01-.69.4-.17.85-.26,1.36-.26ZM90.15,202.36c-.13,0-.26.02-.37.05-.12.03-.22.08-.32.13-.09.05-.18.11-.25.18-.07.06-.13.12-.18.17-.14.14-.25.3-.33.47-.09.17-.15.35-.2.53-.05.19-.08.38-.1.57-.02.2-.03.39-.03.59,0,.39.04.79.12,1.18.08.39.23.75.47,1.07.1.14.21.25.33.34.11.09.23.16.34.22.11.05.22.09.33.12.11.02.2.03.3.03.25,0,.48-.06.69-.19.21-.13.39-.29.54-.49.22-.29.36-.6.42-.95.06-.35.09-.7.09-1.06,0-.15,0-.33-.02-.53-.01-.2-.04-.4-.09-.6-.04-.2-.1-.4-.18-.6-.07-.2-.17-.38-.29-.54-.15-.21-.33-.37-.55-.5-.22-.13-.45-.19-.71-.19Z"/>
        <path class="st5" d="M96.08,202.16c.26,0,.49,0,.69.01.21,0,.42,0,.64,0h.27c.13,0,.27,0,.41,0,.15,0,.29,0,.42,0h.28c.19,0,.42.01.67.04.25.03.49.1.71.21.26.14.44.32.55.55.11.23.16.47.16.71,0,.26-.05.49-.15.68-.1.19-.21.35-.34.47-.13.13-.27.23-.41.3-.14.08-.26.14-.35.18l1.21,1.51c.19.23.34.42.46.55.12.13.23.24.32.31.09.07.18.12.26.14.08.02.17.04.28.05v.33c-.15,0-.29,0-.41,0h-.38c-.15,0-.3,0-.44,0-.15,0-.3,0-.44,0-.17-.23-.32-.43-.45-.61-.13-.18-.28-.37-.42-.56-.15-.19-.32-.41-.51-.65-.19-.24-.43-.54-.71-.89h-.42v1.39c0,.18,0,.33.02.44,0,.12.02.21.06.28.03.07.08.12.15.16.07.04.16.07.27.09.11.02.25.03.41.04v.33c-.24,0-.48-.01-.71-.02-.23,0-.47,0-.71,0s-.47,0-.7,0c-.23,0-.46.01-.68.02v-.33c.16-.02.29-.05.38-.07.09-.03.16-.07.21-.12.05-.06.08-.13.09-.23.01-.1.02-.23.03-.39,0-.13,0-.26,0-.4v-2.55c0-.07,0-.17,0-.3,0-.13,0-.26-.01-.4,0-.14-.01-.26-.03-.38-.01-.12-.03-.2-.04-.24-.05-.11-.12-.19-.21-.21-.09-.03-.24-.06-.42-.09v-.31ZM97.97,205.15c.06,0,.12,0,.18,0,.06,0,.12,0,.18,0,.03,0,.09,0,.16,0,.07,0,.15-.01.24-.03.09-.02.19-.04.28-.08.1-.03.19-.09.27-.15.11-.09.21-.22.31-.4.1-.18.15-.42.15-.71,0-.14-.01-.27-.04-.41-.03-.13-.08-.26-.15-.37-.07-.14-.16-.24-.25-.31-.09-.07-.2-.12-.33-.16-.13-.03-.27-.05-.44-.06-.17,0-.36,0-.57,0v2.69Z"/>
        <path class="st5" d="M107.17,202.14c.07.18.14.33.19.44.05.12.1.23.15.33.05.1.1.21.15.31.05.11.11.23.18.38l-.23.17s-.09-.1-.17-.19c-.08-.09-.16-.17-.24-.26-.08-.09-.15-.16-.22-.24-.07-.07-.11-.12-.12-.13-.13-.12-.25-.21-.36-.28-.11-.07-.23-.12-.36-.15-.13-.03-.26-.06-.41-.06-.15,0-.31-.01-.49-.01h-.83v2.38h.71c.2,0,.36-.01.48-.04.12-.03.22-.08.3-.15.08-.07.14-.18.18-.31.05-.13.09-.31.15-.52h.27c0,.22,0,.44-.01.66,0,.22,0,.44,0,.66,0,.19,0,.37,0,.53,0,.16,0,.36.01.6h-.27c-.05-.21-.09-.37-.14-.5-.05-.13-.11-.24-.18-.31-.07-.08-.17-.13-.29-.16-.12-.03-.27-.05-.45-.05h-.77v1.3c0,.28,0,.5.02.67.01.17.05.3.1.39.06.09.15.15.27.18.13.03.3.05.53.06h.62c.14,0,.27,0,.39-.03.12-.02.25-.08.38-.17.13-.09.28-.23.44-.42.17-.19.36-.46.6-.8l.24.12c-.06.19-.12.35-.16.48-.04.13-.08.25-.12.36-.03.11-.07.23-.1.35-.03.12-.07.27-.12.44h-5.02v-.33c.11-.01.21-.02.3-.04.08-.01.15-.04.21-.07.05-.03.1-.07.12-.12.03-.05.05-.12.06-.21.01-.09.02-.22.02-.37s0-.38,0-.66v-2.73c0-.11,0-.21,0-.32,0-.1,0-.2-.01-.28,0-.09-.01-.15-.02-.21-.03-.14-.09-.24-.18-.28-.09-.05-.26-.08-.49-.1v-.33h4.66Z"/>
        <path class="st5" d="M110.71,202.44c.18-.06.32-.11.44-.15.12-.05.22-.09.31-.13.09-.04.17-.08.24-.12.07-.04.14-.09.21-.15.03.1.05.19.07.25.02.07.04.13.06.19.02.06.04.12.06.19.02.07.05.15.09.26l1.33,4.11c.06.18.11.33.16.45.05.12.11.21.18.29.07.07.15.13.26.16.1.03.23.06.39.08v.33c-.24,0-.48,0-.71-.01-.24,0-.47,0-.71,0s-.47,0-.7,0c-.23,0-.46,0-.7.01v-.33c.21-.01.38-.04.52-.08.14-.04.21-.15.21-.31,0-.06,0-.12-.02-.18-.01-.06-.03-.12-.05-.18l-.4-1.34h-1.87l-.44,1.25c-.02.06-.04.13-.06.19-.01.06-.02.13-.02.19,0,.11.03.19.08.25.05.06.12.11.2.14.08.03.17.05.27.06.1,0,.19.02.28.02v.33c-.22-.01-.41-.02-.59-.02-.17,0-.35,0-.53,0-.39,0-.77,0-1.15.03v-.33c.16,0,.29-.02.4-.04.11-.02.2-.06.28-.12.08-.06.15-.14.21-.24.06-.1.12-.23.18-.39l1.63-4.48-.09-.15ZM111.81,205.33c-.09-.29-.16-.52-.22-.72-.06-.19-.12-.37-.18-.53-.05-.16-.11-.32-.17-.47-.06-.16-.13-.34-.21-.56l-.81,2.28h1.58Z"/>
        <path class="st5" d="M114.61,208.18v-.33c.15-.02.28-.04.37-.06.09-.02.17-.06.21-.11.05-.05.08-.13.1-.22.02-.1.03-.23.03-.39,0-.03,0-.1,0-.2,0-.1,0-.2,0-.31,0-.11,0-.22,0-.32v-2.58c0-.11,0-.21,0-.33,0-.11-.01-.22-.02-.31,0-.1-.01-.17-.03-.21-.03-.14-.1-.23-.2-.27-.11-.03-.27-.06-.48-.09v-.33h2.92c.2,0,.4,0,.59,0,.19,0,.39.02.57.04.19.03.37.07.56.12.18.05.36.13.55.24.18.1.35.23.52.39.17.16.32.35.45.56.13.21.24.46.33.73.08.27.12.57.12.89,0,.36-.05.71-.16,1.05-.11.34-.28.65-.5.93-.22.27-.47.47-.74.62-.27.15-.55.25-.83.32-.28.07-.56.11-.82.12-.27.01-.5.02-.71.02h-2.82ZM116.54,202.47v4.05c0,.29,0,.51,0,.69,0,.17.03.31.07.4.04.1.11.16.21.19.1.03.24.05.42.05.45,0,.84-.08,1.16-.24.32-.16.59-.37.8-.63.21-.26.37-.56.47-.89.1-.33.15-.68.15-1.04,0-.41-.06-.76-.19-1.08-.13-.31-.31-.59-.55-.83-.17-.17-.34-.29-.5-.39-.17-.09-.33-.16-.5-.2-.17-.04-.33-.07-.5-.08-.17-.01-.33-.02-.5-.02h-.56Z"/>
      </g>
    </g>
    <g>
      <text class="st2" transform="translate(25.19 81.39)"><tspan x="0" y="0">Ser</tspan><tspan class="st12" x="8.19" y="0"> </tspan><tspan x="10.12" y="0">el</tspan><tspan class="st4" x="14.53" y="0"> </tspan><tspan x="16.46" y="0">más</tspan><tspan class="st12" x="27.13" y="0"> </tspan><tspan x="29.06" y="0">trascendental</tspan><tspan class="st4" x="64.81" y="0"> </tspan><tspan x="66.74" y="0">y</tspan><tspan class="st12" x="69.57" y="0"> </tspan><tspan x="71.5" y="0">resolutivo</tspan><tspan class="st4" x="96.1" y="0"> </tspan><tspan x="98.03" y="0">grupo </tspan><tspan x="0" y="5.98">de</tspan><tspan class="st15" x="6.69" y="5.98"> </tspan><tspan x="14.47" y="5.98">empresas</tspan><tspan class="st6" x="39.36" y="5.98"> </tspan><tspan x="47.15" y="5.98">dedicadas</tspan><tspan class="st15" x="74.49" y="5.98"> </tspan><tspan x="82.28" y="5.98">a</tspan><tspan class="st6" x="85.76" y="5.98"> </tspan><tspan x="93.55" y="5.98">proveer </tspan><tspan x="0" y="11.96">soluciones</tspan><tspan class="st7" x="26.5" y="11.96"> </tspan><tspan x="30.95" y="11.96">de</tspan><tspan class="st7" x="37.64" y="11.96"> </tspan><tspan x="42.1" y="11.96">servicios</tspan><tspan class="st7" x="63.73" y="11.96"> </tspan><tspan x="68.19" y="11.96">multidisciplinarios </tspan><tspan x="0" y="17.94">donde</tspan><tspan class="st17" x="16.58" y="17.94"> </tspan><tspan x="21.43" y="17.94">la</tspan><tspan class="st9" x="26.12" y="17.94"> </tspan><tspan x="30.98" y="17.94">calidad</tspan><tspan class="st17" x="50.33" y="17.94"> </tspan><tspan x="55.18" y="17.94">de</tspan><tspan class="st17" x="61.86" y="17.94"> </tspan><tspan x="66.72" y="17.94">vida</tspan><tspan class="st9" x="77.74" y="17.94"> </tspan><tspan x="82.59" y="17.94">es</tspan><tspan class="st17" x="88.31" y="17.94"> </tspan><tspan x="93.17" y="17.94">lo</tspan><tspan class="st17" x="97.69" y="17.94"> </tspan><tspan x="102.54" y="17.94">más </tspan></text>
      <text class="st0" transform="translate(25.19 72.68)"><tspan x="0" y="0">Misión</tspan></text>
      <g>
        <text class="st2" transform="translate(25.19 121.9)"><tspan x="0" y="0">Con</tspan><tspan class="st18" x="10.48" y="0"> </tspan><tspan x="13.09" y="0">miras</tspan><tspan class="st14" x="26.77" y="0"> </tspan><tspan x="29.39" y="0">al</tspan><tspan class="st18" x="34.08" y="0"> </tspan><tspan x="36.7" y="0">crecimiento</tspan><tspan class="st14" x="66.51" y="0"> </tspan><tspan x="69.12" y="0">integro</tspan><tspan class="st18" x="87.32" y="0"> </tspan><tspan x="89.93" y="0">del</tspan><tspan class="st14" x="97.83" y="0"> </tspan><tspan x="100.45" y="0">valor </tspan><tspan x="0" y="5.98">humano, tecnológico e infraestructura.</tspan></text>
        <text class="st0" transform="translate(24.72 114.35)"><tspan x="0" y="0">Visión</tspan></text>
      </g>
      <g>
        <text class="st0" transform="translate(25.19 146.44)"><tspan x="0" y="0">Valores</tspan></text>
        <g>
          <g>
            <path class="st1" d="M26.51,154.11c-.12.12-.26.18-.44.18s-.32-.06-.44-.18-.18-.27-.18-.44.06-.32.18-.44.27-.18.44-.18.32.06.44.18.18.26.18.44-.06.32-.18.44Z"/>
            <path class="st1" d="M31.6,151.75h.51v3.85h-.51v-3.85Z"/>
            <path class="st1" d="M34.25,152.78c.32,0,.58.1.78.31.19.2.29.48.29.83v1.69h-.48v-1.66c0-.22-.06-.4-.18-.52-.12-.12-.29-.18-.5-.18-.24,0-.43.07-.58.22s-.22.38-.22.68v1.46h-.48v-2.75h.48v.4c.19-.31.49-.47.89-.47Z"/>
            <path class="st1" d="M37.36,152.78c.32,0,.58.1.78.31.19.2.29.48.29.83v1.69h-.48v-1.66c0-.22-.06-.4-.18-.52-.12-.12-.29-.18-.5-.18-.24,0-.43.07-.58.22s-.22.38-.22.68v1.46h-.48v-2.75h.48v.4c.19-.31.49-.47.89-.47Z"/>
            <path class="st1" d="M41.41,155.26c-.28.28-.62.42-1.03.42s-.75-.14-1.03-.42c-.28-.28-.42-.62-.42-1.03s.14-.75.42-1.03c.28-.28.62-.42,1.03-.42s.75.14,1.03.42c.28.28.42.62.42,1.03s-.14.75-.42,1.03ZM40.38,155.21c.27,0,.51-.09.69-.28.19-.19.28-.42.28-.7s-.09-.51-.28-.7-.42-.28-.69-.28-.5.09-.69.28c-.19.19-.28.42-.28.7s.09.51.28.7.42.28.69.28Z"/>
            <path class="st1" d="M44.21,152.85h.52l-1.1,2.75h-.56l-1.1-2.75h.52l.86,2.23.86-2.23Z"/>
            <path class="st1" d="M47.3,152.85h.48v2.75h-.48v-.47c-.24.36-.58.54-1.04.54-.39,0-.71-.14-.98-.42-.27-.28-.41-.62-.41-1.03s.14-.75.41-1.03c.27-.28.6-.42.98-.42.45,0,.8.18,1.04.54v-.47ZM46.32,155.21c.28,0,.51-.09.7-.28.19-.19.28-.42.28-.7s-.09-.51-.28-.7c-.19-.19-.42-.28-.7-.28s-.51.09-.69.28c-.19.19-.28.42-.28.7s.09.51.28.7c.19.19.42.28.69.28Z"/>
            <path class="st1" d="M49.8,155.67c-.41,0-.76-.14-1.03-.42-.27-.28-.41-.62-.41-1.03s.14-.75.41-1.03c.28-.28.62-.42,1.03-.42.27,0,.51.07.73.2.22.13.38.31.48.53l-.4.23c-.07-.15-.18-.26-.32-.35s-.31-.13-.49-.13c-.28,0-.5.09-.69.28-.18.19-.28.42-.28.7s.09.51.28.69c.19.19.42.28.69.28.18,0,.35-.04.5-.13.15-.09.26-.2.33-.35l.41.24c-.12.22-.29.39-.51.52-.22.13-.46.2-.73.2Z"/>
            <path class="st1" d="M51.75,152.35c-.09,0-.17-.03-.23-.09-.06-.06-.09-.14-.09-.22s.03-.16.09-.23.14-.1.23-.1.16.03.23.1.09.14.09.23-.03.16-.09.22c-.06.06-.14.09-.23.09ZM51.51,155.6v-2.75h.48v2.75h-.48Z"/>
            <path class="st1" d="M55.04,155.26c-.28.28-.62.42-1.03.42s-.75-.14-1.03-.42c-.28-.28-.42-.62-.42-1.03s.14-.75.42-1.03c.28-.28.62-.42,1.03-.42s.75.14,1.03.42c.28.28.42.62.42,1.03s-.14.75-.42,1.03ZM54.01,155.21c.27,0,.51-.09.69-.28.19-.19.28-.42.28-.7s-.09-.51-.28-.7-.42-.28-.69-.28-.5.09-.69.28c-.19.19-.28.42-.28.7s.09.51.28.7.42.28.69.28ZM53.68,152.46h.46l.56-.73h-.58l-.44.73Z"/>
            <path class="st1" d="M57.4,152.78c.32,0,.58.1.78.31.19.2.29.48.29.83v1.69h-.48v-1.66c0-.22-.06-.4-.18-.52-.12-.12-.29-.18-.5-.18-.24,0-.43.07-.58.22s-.22.38-.22.68v1.46h-.48v-2.75h.48v.4c.19-.31.49-.47.89-.47Z"/>
            <path class="st1" d="M26.51,160.09c-.12.12-.26.18-.44.18s-.32-.06-.44-.18-.18-.27-.18-.44.06-.32.18-.44.27-.18.44-.18.32.06.44.18.18.26.18.44-.06.32-.18.44Z"/>
            <path class="st1" d="M33.41,161.66c-.58,0-1.06-.19-1.44-.58-.38-.38-.57-.86-.57-1.42s.19-1.03.57-1.42c.38-.38.86-.58,1.44-.58.35,0,.68.08.97.25.29.17.53.4.69.68l-.45.26c-.11-.21-.27-.38-.49-.51-.22-.13-.46-.19-.72-.19-.44,0-.81.14-1.09.43s-.42.64-.42,1.07.14.78.42,1.07c.28.29.64.43,1.09.43.26,0,.5-.06.72-.19.22-.13.38-.29.49-.5l.45.25c-.16.29-.39.51-.69.68-.3.17-.62.26-.97.26Z"/>
            <path class="st1" d="M37.86,158.84h.48v2.75h-.48v-.47c-.24.36-.58.54-1.04.54-.39,0-.71-.14-.98-.42-.27-.28-.41-.62-.41-1.03s.14-.75.41-1.03c.27-.28.6-.42.98-.42.45,0,.8.18,1.04.54v-.47ZM36.88,161.19c.28,0,.51-.09.7-.28.19-.19.28-.42.28-.7s-.09-.51-.28-.7c-.19-.19-.42-.28-.7-.28s-.51.09-.69.28c-.19.19-.28.42-.28.7s.09.51.28.7c.19.19.42.28.69.28Z"/>
            <path class="st1" d="M39.07,161.58v-4.01h.48v4.01h-.48Z"/>
            <path class="st1" d="M40.52,158.33c-.09,0-.17-.03-.23-.09-.06-.06-.09-.14-.09-.22s.03-.16.09-.23.14-.1.23-.1.16.03.23.1.09.14.09.23-.03.16-.09.22c-.06.06-.14.09-.23.09ZM40.28,161.58v-2.75h.48v2.75h-.48Z"/>
            <path class="st1" d="M43.76,157.73h.48v3.85h-.48v-.47c-.24.36-.58.54-1.04.54-.39,0-.71-.14-.98-.42-.27-.28-.41-.62-.41-1.03s.14-.75.41-1.03c.27-.28.6-.42.98-.42.45,0,.8.18,1.04.54v-1.57ZM42.78,161.19c.28,0,.51-.09.7-.28.19-.19.28-.42.28-.7s-.09-.51-.28-.7c-.19-.19-.42-.28-.7-.28s-.51.09-.69.28c-.19.19-.28.42-.28.7s.09.51.28.7c.19.19.42.28.69.28Z"/>
            <path class="st1" d="M47.24,158.84h.48v2.75h-.48v-.47c-.24.36-.58.54-1.04.54-.39,0-.71-.14-.98-.42-.27-.28-.41-.62-.41-1.03s.14-.75.41-1.03c.27-.28.6-.42.98-.42.45,0,.8.18,1.04.54v-.47ZM46.26,161.19c.28,0,.51-.09.7-.28.19-.19.28-.42.28-.7s-.09-.51-.28-.7c-.19-.19-.42-.28-.7-.28s-.51.09-.69.28c-.19.19-.28.42-.28.7s.09.51.28.7c.19.19.42.28.69.28Z"/>
            <path class="st1" d="M50.72,157.73h.48v3.85h-.48v-.47c-.24.36-.58.54-1.04.54-.39,0-.71-.14-.98-.42-.27-.28-.41-.62-.41-1.03s.14-.75.41-1.03c.27-.28.6-.42.98-.42.45,0,.8.18,1.04.54v-1.57ZM49.75,161.19c.28,0,.51-.09.7-.28.19-.19.28-.42.28-.7s-.09-.51-.28-.7c-.19-.19-.42-.28-.7-.28s-.51.09-.69.28c-.19.19-.28.42-.28.7s.09.51.28.7c.19.19.42.28.69.28Z"/>
            <path class="st1" d="M55.58,157.73h.48v3.85h-.48v-.47c-.24.36-.58.54-1.04.54-.39,0-.71-.14-.98-.42-.27-.28-.41-.62-.41-1.03s.14-.75.41-1.03c.27-.28.6-.42.98-.42.45,0,.8.18,1.04.54v-1.57ZM54.6,161.19c.28,0,.51-.09.7-.28.19-.19.28-.42.28-.7s-.09-.51-.28-.7c-.19-.19-.42-.28-.7-.28s-.51.09-.69.28c-.19.19-.28.42-.28.7s.09.51.28.7c.19.19.42.28.69.28Z"/>
            <path class="st1" d="M57.12,160.43c.05.25.16.44.34.57s.4.2.66.2c.36,0,.63-.13.79-.4l.41.23c-.27.41-.67.62-1.21.62-.44,0-.79-.14-1.06-.41-.27-.27-.41-.62-.41-1.04s.13-.76.4-1.03c.27-.28.61-.41,1.04-.41s.73.14.99.43.38.63.38,1.03c0,.07,0,.14-.02.21h-2.3ZM58.07,159.21c-.26,0-.47.07-.64.22-.17.15-.27.34-.31.58h1.84c-.04-.26-.14-.46-.31-.59-.17-.13-.36-.2-.58-.2Z"/>
            <path class="st1" d="M63.29,158.84h.52l-1.1,2.75h-.56l-1.1-2.75h.52l.86,2.23.86-2.23Z"/>
            <path class="st1" d="M64.45,158.33c-.09,0-.17-.03-.23-.09-.06-.06-.09-.14-.09-.22s.03-.16.09-.23.14-.1.23-.1.16.03.23.1.09.14.09.23-.03.16-.09.22c-.06.06-.14.09-.23.09ZM64.21,161.58v-2.75h.48v2.75h-.48Z"/>
            <path class="st1" d="M67.7,157.73h.48v3.85h-.48v-.47c-.24.36-.58.54-1.04.54-.39,0-.71-.14-.98-.42-.27-.28-.41-.62-.41-1.03s.14-.75.41-1.03c.27-.28.6-.42.98-.42.45,0,.8.18,1.04.54v-1.57ZM66.72,161.19c.28,0,.51-.09.7-.28.19-.19.28-.42.28-.7s-.09-.51-.28-.7c-.19-.19-.42-.28-.7-.28s-.51.09-.69.28c-.19.19-.28.42-.28.7s.09.51.28.7c.19.19.42.28.69.28Z"/>
            <path class="st1" d="M71.18,158.84h.48v2.75h-.48v-.47c-.24.36-.58.54-1.04.54-.39,0-.71-.14-.98-.42-.27-.28-.41-.62-.41-1.03s.14-.75.41-1.03c.27-.28.6-.42.98-.42.45,0,.8.18,1.04.54v-.47ZM70.2,161.19c.28,0,.51-.09.7-.28.19-.19.28-.42.28-.7s-.09-.51-.28-.7c-.19-.19-.42-.28-.7-.28s-.51.09-.69.28c-.19.19-.28.42-.28.7s.09.51.28.7c.19.19.42.28.69.28Z"/>
            <path class="st1" d="M26.51,166.07c-.12.12-.26.18-.44.18s-.32-.06-.44-.18-.18-.27-.18-.44.06-.32.18-.44.27-.18.44-.18.32.06.44.18.18.26.18.44-.06.32-.18.44Z"/>
            <path class="st1" d="M32.84,167.64c-.36,0-.67-.08-.92-.25-.25-.17-.43-.4-.54-.69l.44-.25c.15.46.49.7,1.03.7.26,0,.47-.05.61-.16.14-.11.21-.25.21-.43s-.07-.32-.21-.41c-.14-.09-.37-.19-.7-.29-.16-.06-.28-.1-.37-.13-.08-.03-.19-.08-.32-.14-.13-.06-.22-.13-.28-.2-.06-.07-.12-.16-.17-.27-.05-.11-.07-.23-.07-.37,0-.33.12-.6.35-.79.23-.2.52-.29.86-.29.3,0,.57.08.79.23.23.15.4.36.51.61l-.43.25c-.17-.4-.46-.59-.88-.59-.21,0-.38.05-.51.15-.13.1-.19.24-.19.42s.06.3.18.38.33.18.63.27c.1.04.18.06.22.08.04.02.12.04.21.07.09.03.16.06.21.08.04.02.1.05.18.09.08.04.13.08.17.12s.08.08.13.13c.05.05.08.11.11.16.02.05.04.12.06.19.02.07.03.15.03.23,0,.34-.12.61-.37.81-.25.2-.57.3-.96.3Z"/>
            <path class="st1" d="M35.13,166.41c.05.25.16.44.34.57s.4.2.66.2c.36,0,.63-.13.79-.4l.41.23c-.27.41-.67.62-1.21.62-.44,0-.79-.14-1.06-.41-.27-.27-.41-.62-.41-1.04s.13-.76.4-1.03c.27-.28.61-.41,1.04-.41s.73.14.99.43.38.63.38,1.03c0,.07,0,.14-.02.21h-2.3ZM36.08,165.19c-.26,0-.47.07-.64.22-.17.15-.27.34-.31.58h1.84c-.04-.26-.14-.46-.31-.59-.17-.13-.36-.2-.58-.2Z"/>
            <path class="st1" d="M40.27,164.82h.47v2.63c0,.41-.14.72-.41.95-.27.23-.6.34-.99.34-.31,0-.57-.06-.8-.17s-.39-.28-.51-.5l.42-.24c.15.31.45.46.9.46.29,0,.51-.08.67-.23s.24-.36.24-.62v-.39c-.24.37-.59.55-1.03.55-.39,0-.72-.14-1-.42-.27-.28-.41-.62-.41-1.02s.14-.74.41-1.01c.27-.28.6-.42,1-.42.45,0,.79.18,1.03.54v-.47ZM38.6,166.87c.19.19.42.28.7.28s.51-.09.7-.28c.19-.19.28-.42.28-.7s-.09-.51-.28-.69c-.19-.19-.42-.28-.7-.28s-.51.09-.7.28-.28.42-.28.69.09.51.28.7Z"/>
            <path class="st1" d="M43.37,164.82h.48v2.75h-.48v-.4c-.19.31-.49.47-.89.47-.32,0-.58-.1-.78-.3-.19-.2-.29-.48-.29-.83v-1.69h.48v1.66c0,.22.06.4.18.52.12.12.29.18.5.18.24,0,.43-.07.58-.22s.22-.38.22-.68v-1.46Z"/>
            <path class="st1" d="M45.06,165.28c.16-.34.44-.51.86-.51v.5c-.23-.01-.44.05-.6.19-.17.14-.25.35-.25.65v1.46h-.48v-2.75h.48v.46Z"/>
            <path class="st1" d="M46.62,164.31c-.09,0-.17-.03-.23-.09-.06-.06-.09-.14-.09-.22s.03-.16.09-.23.14-.1.23-.1.16.03.23.1.09.14.09.23-.03.16-.09.22c-.06.06-.14.09-.23.09ZM46.38,167.56v-2.75h.48v2.75h-.48Z"/>
            <path class="st1" d="M49.87,163.72h.48v3.85h-.48v-.47c-.24.36-.58.54-1.04.54-.39,0-.71-.14-.98-.42-.27-.28-.41-.62-.41-1.03s.14-.75.41-1.03c.27-.28.6-.42.98-.42.45,0,.8.18,1.04.54v-1.57ZM48.89,167.17c.28,0,.51-.09.7-.28.19-.19.28-.42.28-.7s-.09-.51-.28-.7c-.19-.19-.42-.28-.7-.28s-.51.09-.69.28c-.19.19-.28.42-.28.7s.09.51.28.7c.19.19.42.28.69.28Z"/>
            <path class="st1" d="M53.35,164.82h.48v2.75h-.48v-.47c-.24.36-.58.54-1.04.54-.39,0-.71-.14-.98-.42-.27-.28-.41-.62-.41-1.03s.14-.75.41-1.03c.27-.28.6-.42.98-.42.45,0,.8.18,1.04.54v-.47ZM52.37,167.17c.28,0,.51-.09.7-.28.19-.19.28-.42.28-.7s-.09-.51-.28-.7c-.19-.19-.42-.28-.7-.28s-.51.09-.69.28c-.19.19-.28.42-.28.7s.09.51.28.7c.19.19.42.28.69.28Z"/>
            <path class="st1" d="M56.83,163.72h.48v3.85h-.48v-.47c-.24.36-.58.54-1.04.54-.39,0-.71-.14-.98-.42-.27-.28-.41-.62-.41-1.03s.14-.75.41-1.03c.27-.28.6-.42.98-.42.45,0,.8.18,1.04.54v-1.57ZM55.85,167.17c.28,0,.51-.09.7-.28.19-.19.28-.42.28-.7s-.09-.51-.28-.7c-.19-.19-.42-.28-.7-.28s-.51.09-.69.28c-.19.19-.28.42-.28.7s.09.51.28.7c.19.19.42.28.69.28Z"/>
          </g>
          <g>
            <g>
              <path class="st1" d="M92.35,153.86c-.12.12-.26.18-.44.18s-.32-.06-.44-.18-.18-.27-.18-.44.06-.32.18-.44.27-.18.44-.18.32.06.44.18.18.26.18.44-.06.32-.18.44Z"/>
              <path class="st1" d="M99.25,155.42c-.58,0-1.06-.19-1.44-.58-.38-.38-.57-.86-.57-1.42s.19-1.03.57-1.42c.38-.38.86-.58,1.44-.58.35,0,.68.08.97.25.29.17.53.4.69.68l-.45.26c-.11-.21-.27-.38-.49-.51-.22-.13-.46-.19-.72-.19-.44,0-.81.14-1.09.43s-.42.64-.42,1.07.14.78.42,1.07c.28.29.64.43,1.09.43.26,0,.5-.06.72-.19.22-.13.38-.29.49-.5l.45.25c-.16.29-.39.51-.69.68-.3.17-.62.26-.97.26Z"/>
              <path class="st1" d="M101.93,153.06c.16-.34.44-.51.86-.51v.5c-.23-.01-.44.05-.6.19-.17.14-.25.35-.25.65v1.46h-.48v-2.75h.48v.46Z"/>
              <path class="st1" d="M103.44,154.19c.05.25.16.44.34.57s.4.2.66.2c.36,0,.63-.13.79-.4l.41.23c-.27.41-.67.62-1.21.62-.44,0-.79-.14-1.06-.41-.27-.27-.41-.62-.41-1.04s.13-.76.4-1.03c.27-.28.61-.41,1.04-.41s.73.14.99.43.38.63.38,1.03c0,.07,0,.14-.02.21h-2.3ZM104.39,152.98c-.26,0-.47.07-.64.22-.17.15-.27.34-.31.58h1.84c-.04-.26-.14-.46-.31-.59-.17-.13-.36-.2-.58-.2Z"/>
              <path class="st1" d="M107.6,155.42c-.41,0-.76-.14-1.03-.42-.27-.28-.41-.62-.41-1.03s.14-.75.41-1.03c.28-.28.62-.42,1.03-.42.27,0,.51.07.73.2.22.13.38.31.48.53l-.4.23c-.07-.15-.18-.26-.32-.35s-.31-.13-.49-.13c-.28,0-.5.09-.69.28-.18.19-.28.42-.28.7s.09.51.28.69c.19.19.42.28.69.28.18,0,.35-.04.5-.13.15-.09.26-.2.33-.35l.41.24c-.12.22-.29.39-.51.52-.22.13-.46.2-.73.2Z"/>
              <path class="st1" d="M109.55,152.1c-.09,0-.17-.03-.23-.09-.06-.06-.09-.14-.09-.22s.03-.16.09-.23.14-.1.23-.1.16.03.23.1.09.14.09.23-.03.16-.09.22c-.06.06-.14.09-.23.09ZM109.31,155.35v-2.75h.48v2.75h-.48Z"/>
              <path class="st1" d="M113.49,152.53c.31,0,.56.1.75.3.19.2.29.47.29.81v1.71h-.48v-1.69c0-.21-.05-.38-.17-.5-.11-.12-.26-.18-.44-.18-.21,0-.37.07-.49.21-.12.14-.18.35-.18.63v1.53h-.48v-1.69c0-.21-.05-.38-.16-.5s-.25-.18-.43-.18c-.2,0-.37.07-.5.21-.13.14-.2.35-.2.63v1.53h-.48v-2.75h.48v.37c.19-.29.46-.44.82-.44s.64.16.81.47c.19-.31.48-.47.86-.47Z"/>
              <path class="st1" d="M115.43,152.1c-.09,0-.17-.03-.23-.09-.06-.06-.09-.14-.09-.22s.03-.16.09-.23.14-.1.23-.1.16.03.23.1.09.14.09.23-.03.16-.09.22c-.06.06-.14.09-.23.09ZM115.19,155.35v-2.75h.48v2.75h-.48Z"/>
              <path class="st1" d="M116.73,154.19c.05.25.16.44.34.57s.4.2.66.2c.36,0,.63-.13.79-.4l.41.23c-.27.41-.67.62-1.21.62-.44,0-.79-.14-1.06-.41-.27-.27-.41-.62-.41-1.04s.13-.76.4-1.03c.27-.28.61-.41,1.04-.41s.73.14.99.43.38.63.38,1.03c0,.07,0,.14-.02.21h-2.3ZM117.68,152.98c-.26,0-.47.07-.64.22-.17.15-.27.34-.31.58h1.84c-.04-.26-.14-.46-.31-.59-.17-.13-.36-.2-.58-.2Z"/>
              <path class="st1" d="M120.97,152.53c.32,0,.58.1.78.31.19.2.29.48.29.83v1.69h-.48v-1.66c0-.22-.06-.4-.18-.52-.12-.12-.29-.18-.5-.18-.24,0-.43.07-.58.22s-.22.38-.22.68v1.46h-.48v-2.75h.48v.4c.19-.31.49-.47.89-.47Z"/>
              <path class="st1" d="M124.2,153.06h-.73v1.49c0,.13.03.23.08.29s.13.09.25.09c.11,0,.25,0,.41,0v.43c-.42.05-.72.02-.92-.1s-.29-.35-.29-.7v-1.49h-.54v-.46h.54v-.63l.48-.14v.77h.73v.46Z"/>
              <path class="st1" d="M126.95,155c-.28.28-.62.42-1.03.42s-.75-.14-1.03-.42c-.28-.28-.42-.62-.42-1.03s.14-.75.42-1.03c.28-.28.62-.42,1.03-.42s.75.14,1.03.42c.28.28.42.62.42,1.03s-.14.75-.42,1.03ZM125.92,154.95c.27,0,.51-.09.69-.28.19-.19.28-.42.28-.7s-.09-.51-.28-.7-.42-.28-.69-.28-.5.09-.69.28c-.19.19-.28.42-.28.7s.09.51.28.7.42.28.69.28Z"/>
              <path class="st1" d="M92.35,159.84c-.12.12-.26.18-.44.18s-.32-.06-.44-.18-.18-.27-.18-.44.06-.32.18-.44.27-.18.44-.18.32.06.44.18.18.26.18.44-.06.32-.18.44Z"/>
              <path class="st1" d="M99.72,161.33l-.86-1.47h-.91v1.47h-.51v-3.85h1.54c.33,0,.61.12.85.35s.35.51.35.84c0,.25-.07.48-.22.68-.15.21-.34.35-.57.43l.91,1.54h-.57ZM97.95,157.96v1.44h1.03c.19,0,.35-.07.49-.21.13-.14.2-.31.2-.51s-.07-.37-.2-.51c-.13-.14-.3-.21-.49-.21h-1.03Z"/>
              <path class="st1" d="M100.95,160.17c.05.25.16.44.34.57s.4.2.66.2c.36,0,.63-.13.79-.4l.41.23c-.27.41-.67.62-1.21.62-.44,0-.79-.14-1.06-.41-.27-.27-.41-.62-.41-1.04s.13-.76.4-1.03c.27-.28.61-.41,1.04-.41s.73.14.99.43.38.63.38,1.03c0,.07,0,.14-.02.21h-2.3ZM101.9,158.96c-.26,0-.47.07-.64.22-.17.15-.27.34-.31.58h1.84c-.04-.26-.14-.46-.31-.59-.17-.13-.36-.2-.58-.2Z"/>
              <path class="st1" d="M104.12,159.31c0,.1.05.19.16.25.11.06.24.12.39.16s.3.09.45.13c.15.04.28.13.38.25.1.12.16.28.16.47,0,.25-.1.45-.29.6s-.44.23-.74.23c-.27,0-.5-.06-.69-.18s-.33-.27-.41-.47l.41-.24c.04.13.13.24.25.31s.27.12.43.12c.16,0,.29-.03.39-.09s.15-.16.15-.28c0-.11-.05-.19-.16-.25-.11-.06-.23-.12-.38-.16-.15-.04-.3-.09-.45-.14-.15-.05-.28-.13-.39-.24s-.16-.27-.16-.45c0-.24.09-.43.28-.59.18-.15.42-.23.7-.23.22,0,.42.05.6.15s.31.24.39.42l-.4.23c-.1-.23-.3-.35-.59-.35-.14,0-.25.03-.35.09-.09.06-.14.15-.14.27Z"/>
              <path class="st1" d="M107.74,158.51c.38,0,.71.14.98.42.27.28.41.62.41,1.03s-.14.75-.41,1.03c-.27.28-.6.42-.98.42-.46,0-.8-.18-1.04-.54v1.57h-.48v-3.85h.48v.47c.24-.36.58-.54,1.04-.54ZM107.68,160.94c.27,0,.51-.09.69-.28.19-.19.28-.42.28-.7s-.09-.51-.28-.7c-.19-.19-.42-.28-.69-.28s-.51.09-.7.28c-.19.19-.28.42-.28.7s.09.51.28.7c.19.19.42.28.7.28Z"/>
              <path class="st1" d="M112.03,160.98c-.28.28-.62.42-1.03.42s-.75-.14-1.03-.42c-.28-.28-.42-.62-.42-1.03s.14-.75.42-1.03c.28-.28.62-.42,1.03-.42s.75.14,1.03.42c.28.28.42.62.42,1.03s-.14.75-.42,1.03ZM111,160.93c.27,0,.51-.09.69-.28.19-.19.28-.42.28-.7s-.09-.51-.28-.7-.42-.28-.69-.28-.5.09-.69.28c-.19.19-.28.42-.28.7s.09.51.28.7.42.28.69.28Z"/>
              <path class="st1" d="M114.39,158.51c.32,0,.58.1.78.31.19.2.29.48.29.83v1.69h-.48v-1.66c0-.22-.06-.4-.18-.52-.12-.12-.29-.18-.5-.18-.24,0-.43.07-.58.22s-.22.38-.22.68v1.46h-.48v-2.75h.48v.4c.19-.31.49-.47.89-.47Z"/>
              <path class="st1" d="M116.53,159.31c0,.1.05.19.16.25.11.06.24.12.39.16s.3.09.45.13c.15.04.28.13.38.25.1.12.16.28.16.47,0,.25-.1.45-.29.6s-.44.23-.74.23c-.27,0-.5-.06-.69-.18s-.33-.27-.41-.47l.41-.24c.04.13.13.24.25.31s.27.12.43.12c.16,0,.29-.03.39-.09s.15-.16.15-.28c0-.11-.05-.19-.16-.25-.11-.06-.23-.12-.38-.16-.15-.04-.3-.09-.45-.14-.15-.05-.28-.13-.39-.24s-.16-.27-.16-.45c0-.24.09-.43.28-.59.18-.15.42-.23.7-.23.22,0,.42.05.6.15s.31.24.39.42l-.4.23c-.1-.23-.3-.35-.59-.35-.14,0-.25.03-.35.09-.09.06-.14.15-.14.27Z"/>
              <path class="st1" d="M120.84,158.58h.48v2.75h-.48v-.47c-.24.36-.58.54-1.04.54-.39,0-.71-.14-.98-.42-.27-.28-.41-.62-.41-1.03s.14-.75.41-1.03c.27-.28.6-.42.98-.42.45,0,.8.18,1.04.54v-.47ZM119.86,160.94c.28,0,.51-.09.7-.28.19-.19.28-.42.28-.7s-.09-.51-.28-.7c-.19-.19-.42-.28-.7-.28s-.51.09-.69.28c-.19.19-.28.42-.28.7s.09.51.28.7c.19.19.42.28.69.28Z"/>
              <path class="st1" d="M123.56,158.51c.38,0,.71.14.98.42.27.28.41.62.41,1.03s-.14.75-.41,1.03c-.27.28-.6.42-.98.42-.46,0-.8-.18-1.04-.54v.47h-.48v-3.85h.48v1.57c.24-.36.58-.54,1.04-.54ZM123.5,160.94c.27,0,.51-.09.69-.28.19-.19.28-.42.28-.7s-.09-.51-.28-.7c-.19-.19-.42-.28-.69-.28s-.51.09-.7.28c-.19.19-.28.42-.28.7s.09.51.28.7c.19.19.42.28.7.28Z"/>
              <path class="st1" d="M125.76,158.08c-.09,0-.17-.03-.23-.09-.06-.06-.09-.14-.09-.22s.03-.16.09-.23.14-.1.23-.1.16.03.23.1.09.14.09.23-.03.16-.09.22c-.06.06-.14.09-.23.09ZM125.52,161.33v-2.75h.48v2.75h-.48Z"/>
              <path class="st1" d="M126.73,161.33v-4.01h.48v4.01h-.48Z"/>
              <path class="st1" d="M128.18,158.08c-.09,0-.17-.03-.23-.09-.06-.06-.09-.14-.09-.22s.03-.16.09-.23.14-.1.23-.1.16.03.23.1.09.14.09.23-.03.16-.09.22c-.06.06-.14.09-.23.09ZM127.94,161.33v-2.75h.48v2.75h-.48Z"/>
              <path class="st1" d="M131.43,157.48h.48v3.85h-.48v-.47c-.24.36-.58.54-1.04.54-.39,0-.71-.14-.98-.42-.27-.28-.41-.62-.41-1.03s.14-.75.41-1.03c.27-.28.6-.42.98-.42.45,0,.8.18,1.04.54v-1.57ZM130.45,160.94c.28,0,.51-.09.7-.28.19-.19.28-.42.28-.7s-.09-.51-.28-.7c-.19-.19-.42-.28-.7-.28s-.51.09-.69.28c-.19.19-.28.42-.28.7s.09.51.28.7c.19.19.42.28.69.28Z"/>
              <path class="st1" d="M134.91,158.58h.48v2.75h-.48v-.47c-.24.36-.58.54-1.04.54-.39,0-.71-.14-.98-.42-.27-.28-.41-.62-.41-1.03s.14-.75.41-1.03c.27-.28.6-.42.98-.42.45,0,.8.18,1.04.54v-.47ZM133.93,160.94c.28,0,.51-.09.7-.28.19-.19.28-.42.28-.7s-.09-.51-.28-.7c-.19-.19-.42-.28-.7-.28s-.51.09-.69.28c-.19.19-.28.42-.28.7s.09.51.28.7c.19.19.42.28.69.28Z"/>
              <path class="st1" d="M138.39,157.48h.48v3.85h-.48v-.47c-.24.36-.58.54-1.04.54-.39,0-.71-.14-.98-.42-.27-.28-.41-.62-.41-1.03s.14-.75.41-1.03c.27-.28.6-.42.98-.42.45,0,.8.18,1.04.54v-1.57ZM137.41,160.94c.28,0,.51-.09.7-.28.19-.19.28-.42.28-.7s-.09-.51-.28-.7c-.19-.19-.42-.28-.7-.28s-.51.09-.69.28c-.19.19-.28.42-.28.7s.09.51.28.7c.19.19.42.28.69.28Z"/>
            </g>
            <text class="st2" transform="translate(96.89 166.48)"><tspan x="0" y="0">Social</tspan></text>
          </g>
        </g>
      </g>
    </g>
    <rect class="st5" x="-1.89" y="262.02" width="165.79" height="36.18"/>
  </g>
</svg>